<?xml version="1.0" encoding="utf-8"?>
<!-- Generator: Adobe Illustrator 26.0.1, SVG Export Plug-In . SVG Version: 6.00 Build 0)  -->
<svg version="1.1" xmlns="http://www.w3.org/2000/svg" xmlns:xlink="http://www.w3.org/1999/xlink" x="0px" y="0px"
	 viewBox="0 0 500 500" style="enable-background:new 0 0 500 500;" xml:space="preserve">
<style type="text/css">
	.st0{fill:#141D2F;}
	.st1{fill:#0079FF;}
	.st2{fill:#1E2A47;}
	.st3{fill:#FFC1C2;}
	.st4{fill:#FFFFFF;}
	.st5{fill:#333333;}
	.st6{fill:#FFDBDB;}
	.st7{fill:#FF7979;}
	.st8{fill:#697C9A;}
</style>
<g id="BACKGROUND">
</g>
<g id="OBJECTS">
	<g>
		<g>
			<path class="st0" d="M30.47,401.83h0.79v-27.76h5.78v30.65h-11.3l-3.59-27.76h-0.79v27.76h-5.78v-30.65h11.3L30.47,401.83z"/>
			<path class="st0" d="M45.09,385.98c0-3.97,1-7.05,3-9.24c2-2.19,4.77-3.28,8.3-3.28c3.53,0,6.3,1.09,8.3,3.28
				c2,2.19,3,5.27,3,9.24v6.83c0,4.09-1,7.2-3,9.33c-2,2.13-4.77,3.2-8.3,3.2c-3.53,0-6.3-1.07-8.3-3.2c-2-2.13-3-5.24-3-9.33
				V385.98z M56.39,400.08c1.05,0,1.93-0.17,2.63-0.5s1.27-0.81,1.71-1.42c0.44-0.61,0.74-1.34,0.92-2.19
				c0.18-0.85,0.26-1.78,0.26-2.8v-7.53c0-0.96-0.1-1.87-0.31-2.71c-0.2-0.85-0.53-1.58-0.96-2.19c-0.44-0.61-1.01-1.1-1.71-1.47
				s-1.55-0.55-2.54-0.55c-0.99,0-1.84,0.18-2.54,0.55s-1.27,0.85-1.71,1.47c-0.44,0.61-0.76,1.34-0.96,2.19
				c-0.2,0.85-0.31,1.75-0.31,2.71v7.53c0,1.02,0.09,1.96,0.26,2.8s0.48,1.58,0.92,2.19c0.44,0.61,1.01,1.09,1.71,1.42
				C54.46,399.92,55.34,400.08,56.39,400.08z"/>
			<path class="st0" d="M126.93,404.72h-5.78v-9.2c0-0.7-0.18-1.27-0.55-1.71c-0.37-0.44-0.97-0.66-1.82-0.66h-6.66v11.56h-5.78
				v-30.65h11.73c1.58,0,2.96,0.22,4.16,0.66c1.2,0.44,2.2,1.04,3,1.82c0.8,0.77,1.42,1.67,1.84,2.69c0.42,1.02,0.63,2.12,0.63,3.28
				v1.05c0,1.26-0.34,2.43-1.01,3.52c-0.67,1.09-1.71,1.93-3.11,2.52v0.79c1.02,0.12,1.83,0.51,2.43,1.18
				c0.6,0.67,0.9,1.52,0.9,2.54V404.72z M112.13,387.65h5.52c1.4,0,2.47-0.33,3.2-0.99c0.73-0.66,1.09-1.58,1.09-2.78v-0.53
				c0-1.02-0.37-1.9-1.09-2.65c-0.73-0.74-1.8-1.12-3.2-1.12h-5.52V387.65z"/>
			<path class="st0" d="M136.82,374.07h19.35v5.52H142.6v7.01h13.05v5.52H142.6v7.09h14.1v5.52h-19.88V374.07z"/>
			<path class="st0" d="M181.96,383.44c0-1.23-0.47-2.29-1.42-3.2c-0.95-0.91-2.28-1.36-4.01-1.36c-1.46,0-2.61,0.3-3.46,0.9
				c-0.85,0.6-1.27,1.41-1.27,2.43c0,0.53,0.1,1,0.31,1.42c0.2,0.42,0.56,0.8,1.07,1.14c0.51,0.34,1.18,0.63,2.01,0.9
				s1.89,0.51,3.17,0.74c3.21,0.58,5.66,1.56,7.36,2.93c1.69,1.37,2.54,3.4,2.54,6.09v0.53c0,1.43-0.26,2.72-0.77,3.88
				c-0.51,1.15-1.25,2.14-2.21,2.96c-0.96,0.82-2.13,1.45-3.5,1.88c-1.37,0.44-2.92,0.66-4.64,0.66c-2.01,0-3.79-0.29-5.32-0.85
				c-1.53-0.57-2.81-1.36-3.83-2.36c-1.02-1.01-1.8-2.19-2.32-3.55c-0.53-1.36-0.79-2.84-0.79-4.44v-1.31h5.78v1.05
				c0,1.84,0.53,3.31,1.6,4.4c1.07,1.09,2.72,1.64,4.97,1.64c1.75,0,3.05-0.38,3.9-1.14c0.85-0.76,1.27-1.66,1.27-2.71
				c0-0.5-0.09-0.97-0.26-1.42c-0.18-0.45-0.48-0.86-0.92-1.23s-1.04-0.69-1.8-0.99c-0.76-0.29-1.72-0.54-2.89-0.74
				c-1.55-0.26-2.96-0.61-4.25-1.03c-1.28-0.42-2.4-0.99-3.35-1.69c-0.95-0.7-1.69-1.58-2.21-2.63c-0.53-1.05-0.79-2.33-0.79-3.85
				v-0.26c0-1.25,0.26-2.42,0.77-3.48c0.51-1.07,1.23-1.99,2.15-2.78c0.92-0.79,2.03-1.4,3.33-1.84c1.3-0.44,2.75-0.66,4.36-0.66
				c1.81,0,3.42,0.26,4.82,0.77c1.4,0.51,2.58,1.2,3.52,2.08c0.95,0.88,1.66,1.88,2.15,3.02c0.48,1.14,0.72,2.34,0.72,3.59v1.58
				h-5.78V383.44z"/>
			<path class="st0" d="M217.83,374.07v20.05c0,3.5-0.93,6.25-2.78,8.23c-1.85,1.99-4.6,2.98-8.25,2.98c-3.65,0-6.4-0.99-8.25-2.98
				c-1.85-1.98-2.78-4.73-2.78-8.23v-20.05h5.78v20.05c0,1.81,0.42,3.23,1.27,4.25c0.85,1.02,2.17,1.53,3.98,1.53
				c1.81,0,3.14-0.51,3.98-1.53c0.85-1.02,1.27-2.44,1.27-4.25v-20.05H217.83z"/>
			<path class="st0" d="M227.06,374.07h5.78v25.13h13.92v5.52h-19.7V374.07z"/>
			<path class="st0" d="M255.92,374.07h22.07v5.52h-8.14v25.13h-5.78v-25.13h-8.14V374.07z"/>
			<path class="st0" d="M302.29,383.44c0-1.23-0.47-2.29-1.42-3.2c-0.95-0.91-2.28-1.36-4.01-1.36c-1.46,0-2.61,0.3-3.46,0.9
				s-1.27,1.41-1.27,2.43c0,0.53,0.1,1,0.31,1.42c0.2,0.42,0.56,0.8,1.07,1.14c0.51,0.34,1.18,0.63,2.01,0.9s1.89,0.51,3.17,0.74
				c3.21,0.58,5.66,1.56,7.36,2.93c1.69,1.37,2.54,3.4,2.54,6.09v0.53c0,1.43-0.26,2.72-0.77,3.88s-1.25,2.14-2.21,2.96
				c-0.96,0.82-2.13,1.45-3.5,1.88c-1.37,0.44-2.92,0.66-4.64,0.66c-2.01,0-3.79-0.29-5.32-0.85c-1.53-0.57-2.81-1.36-3.83-2.36
				s-1.79-2.19-2.32-3.55c-0.53-1.36-0.79-2.84-0.79-4.44v-1.31h5.78v1.05c0,1.84,0.53,3.31,1.6,4.4s2.72,1.64,4.97,1.64
				c1.75,0,3.05-0.38,3.9-1.14c0.85-0.76,1.27-1.66,1.27-2.71c0-0.5-0.09-0.97-0.26-1.42c-0.18-0.45-0.48-0.86-0.92-1.23
				s-1.04-0.69-1.79-0.99c-0.76-0.29-1.72-0.54-2.89-0.74c-1.55-0.26-2.96-0.61-4.25-1.03c-1.28-0.42-2.4-0.99-3.35-1.69
				s-1.69-1.58-2.21-2.63s-0.79-2.33-0.79-3.85v-0.26c0-1.25,0.25-2.42,0.77-3.48c0.51-1.07,1.23-1.99,2.15-2.78
				c0.92-0.79,2.03-1.4,3.33-1.84c1.3-0.44,2.75-0.66,4.36-0.66c1.81,0,3.42,0.26,4.82,0.77c1.4,0.51,2.58,1.2,3.52,2.08
				c0.95,0.88,1.66,1.88,2.15,3.02s0.72,2.34,0.72,3.59v1.58h-5.78V383.44z"/>
			<path class="st0" d="M347.65,374.07h19.62v5.52h-13.84v7.01H367v5.52h-13.57v12.61h-5.78V374.07z"/>
			<path class="st0" d="M375.98,385.98c0-3.97,1-7.05,3-9.24c2-2.19,4.77-3.28,8.3-3.28c3.53,0,6.3,1.09,8.3,3.28
				c2,2.19,3,5.27,3,9.24v6.83c0,4.09-1,7.2-3,9.33s-4.77,3.2-8.3,3.2c-3.53,0-6.3-1.07-8.3-3.2s-3-5.24-3-9.33V385.98z
				 M387.27,400.08c1.05,0,1.93-0.17,2.63-0.5s1.27-0.81,1.71-1.42c0.44-0.61,0.74-1.34,0.92-2.19c0.18-0.85,0.26-1.78,0.26-2.8
				v-7.53c0-0.96-0.1-1.87-0.31-2.71s-0.53-1.58-0.96-2.19c-0.44-0.61-1.01-1.1-1.71-1.47c-0.7-0.37-1.55-0.55-2.54-0.55
				c-0.99,0-1.84,0.18-2.54,0.55c-0.7,0.37-1.27,0.85-1.71,1.47c-0.44,0.61-0.76,1.34-0.96,2.19s-0.31,1.75-0.31,2.71v7.53
				c0,1.02,0.09,1.96,0.26,2.8c0.17,0.85,0.48,1.58,0.92,2.19c0.44,0.61,1.01,1.09,1.71,1.42
				C385.35,399.92,386.22,400.08,387.27,400.08z"/>
			<path class="st0" d="M428.39,374.07v20.05c0,3.5-0.93,6.25-2.78,8.23c-1.85,1.99-4.61,2.98-8.25,2.98c-3.65,0-6.4-0.99-8.25-2.98
				c-1.85-1.98-2.78-4.73-2.78-8.23v-20.05h5.78v20.05c0,1.81,0.42,3.23,1.27,4.25c0.85,1.02,2.17,1.53,3.98,1.53
				c1.81,0,3.14-0.51,3.98-1.53s1.27-2.44,1.27-4.25v-20.05H428.39z"/>
			<path class="st0" d="M451.59,401.83h0.79v-27.76h5.78v30.65h-11.3l-3.59-27.76h-0.79v27.76h-5.78v-30.65H448L451.59,401.83z"/>
			<path class="st0" d="M466.13,374.07h11.12c3.79,0,6.61,0.88,8.45,2.65c1.84,1.77,2.76,4.5,2.76,8.21v8.93
				c0,3.71-0.92,6.44-2.76,8.21c-1.84,1.77-4.66,2.65-8.45,2.65h-11.12v-5.56h2.89v-19.57h-2.89V374.07z M477.25,399.21
				c2.01,0,3.42-0.47,4.23-1.42c0.8-0.95,1.2-2.43,1.2-4.44v-8.41c0-1.75-0.4-3.08-1.2-3.98c-0.8-0.9-2.21-1.36-4.23-1.36h-2.45
				v19.62H477.25z"/>
		</g>
		<g>
			<path class="st1" d="M58.26,416.87h9.04v1.43h-3.75v11.43h-1.54v-11.43h-3.75V416.87z"/>
			<path class="st1" d="M79.43,429.74h-1.54v-4.3c0-0.32-0.07-0.56-0.22-0.74c-0.15-0.17-0.4-0.26-0.77-0.26h-4.01v5.29h-1.54
				v-12.86h4.59c0.66,0,1.24,0.1,1.73,0.29c0.49,0.19,0.9,0.44,1.22,0.76s0.57,0.69,0.73,1.11c0.17,0.42,0.25,0.87,0.25,1.33v0.55
				c0,0.48-0.13,0.96-0.4,1.43c-0.26,0.48-0.67,0.84-1.22,1.1v0.22c0.37,0.06,0.66,0.21,0.86,0.44c0.21,0.23,0.31,0.56,0.31,0.99
				V429.74z M72.88,423.01h2.87c0.87,0,1.52-0.19,1.94-0.56c0.42-0.37,0.63-0.92,0.63-1.64v-0.33c0-0.65-0.21-1.17-0.63-1.57
				c-0.42-0.4-1.07-0.6-1.94-0.6h-2.87V423.01z"/>
			<path class="st1" d="M87.25,425.22h-0.33l-4.02-8.34h1.73l3.29,7.02h0.22l3.29-7.02h1.73l-4.02,8.34H88.8v4.52h-1.54V425.22z"/>
			<path class="st1" d="M116.03,426.54h-5.51l-0.94,3.2h-1.65l3.9-12.86h2.9l3.9,12.86h-1.65L116.03,426.54z M113.16,417.54
				l-2.22,7.57h4.67l-2.22-7.57H113.16z"/>
			<path class="st1" d="M124.67,423.56h5.73v6.17h-1.43v-1.54h-0.22c-0.21,0.54-0.58,0.97-1.1,1.3c-0.53,0.33-1.14,0.5-1.84,0.5
				c-1.38,0-2.47-0.45-3.26-1.34c-0.79-0.89-1.19-2.2-1.19-3.91v-2.87c0-1.67,0.4-2.96,1.19-3.88s1.9-1.38,3.33-1.38
				c0.73,0,1.38,0.12,1.95,0.36s1.04,0.57,1.42,0.99c0.38,0.42,0.67,0.92,0.86,1.49c0.2,0.57,0.29,1.18,0.29,1.83v0.22h-1.54v-0.22
				c0-0.42-0.06-0.82-0.17-1.21c-0.12-0.39-0.29-0.74-0.53-1.04c-0.24-0.3-0.55-0.54-0.92-0.72c-0.37-0.18-0.82-0.27-1.35-0.27
				c-0.99,0-1.74,0.36-2.23,1.08s-0.74,1.67-0.74,2.85v2.65c0,1.26,0.25,2.23,0.74,2.91c0.5,0.68,1.25,1.02,2.27,1.02
				c0.92,0,1.64-0.29,2.16-0.88c0.52-0.59,0.78-1.41,0.78-2.46V425h-4.19V423.56z"/>
			<path class="st1" d="M141.28,426.54h-5.51l-0.94,3.2h-1.65l3.9-12.86h2.9l3.9,12.86h-1.65L141.28,426.54z M138.41,417.54
				l-2.22,7.57h4.67l-2.22-7.57H138.41z"/>
			<path class="st1" d="M147.07,416.87h8.16v1.43h-3.31v10h3.31v1.43h-8.16v-1.43h3.31v-10h-3.31V416.87z"/>
			<path class="st1" d="M166.29,429.08h0.22v-12.2h1.54v12.86h-3.09l-3.71-12.2h-0.22v12.2h-1.54v-12.86h3.09L166.29,429.08z"/>
			<path class="st1" d="M193.13,429.74h-2.81l-1.19-12.2h-0.22l-1.19,12.2h-2.81l-1.3-12.86h1.4l1.23,12.2h0.22l1.16-12.2h2.83
				l1.16,12.2h0.22l1.23-12.2h1.4L193.13,429.74z"/>
			<path class="st1" d="M197.56,416.87h8.16v1.43h-3.31v10h3.31v1.43h-8.16v-1.43h3.31v-10h-3.31V416.87z"/>
			<path class="st1" d="M209.74,416.87h9.04v1.43h-3.75v11.43h-1.54v-11.43h-3.75V416.87z"/>
			<path class="st1" d="M222.61,416.87h1.54v5.7h5.48v-5.7h1.54v12.86h-1.54V424h-5.48v5.73h-1.54V416.87z"/>
			<path class="st1" d="M252.21,428.56c0.53,0,0.98-0.09,1.35-0.27c0.37-0.18,0.68-0.42,0.92-0.72c0.24-0.3,0.42-0.64,0.53-1.03
				c0.12-0.39,0.17-0.79,0.17-1.22v-0.22h1.54v0.22c0,0.65-0.1,1.26-0.29,1.83c-0.2,0.57-0.48,1.07-0.86,1.49
				c-0.38,0.42-0.85,0.75-1.42,0.99c-0.56,0.24-1.21,0.36-1.95,0.36c-1.42,0-2.53-0.45-3.33-1.34c-0.8-0.89-1.19-2.2-1.19-3.91
				v-2.87c0-1.67,0.4-2.96,1.19-3.88c0.8-0.92,1.9-1.38,3.33-1.38c0.74,0,1.38,0.12,1.95,0.36c0.56,0.24,1.04,0.57,1.42,0.99
				c0.38,0.42,0.67,0.92,0.86,1.49c0.2,0.57,0.29,1.18,0.29,1.83v0.22h-1.54v-0.22c-0.01-0.42-0.08-0.82-0.19-1.21
				c-0.12-0.39-0.29-0.74-0.53-1.04c-0.24-0.3-0.54-0.54-0.91-0.72c-0.37-0.18-0.82-0.27-1.34-0.27c-0.99,0-1.74,0.36-2.23,1.08
				s-0.74,1.67-0.74,2.85v2.65c0,1.26,0.25,2.23,0.74,2.91C250.47,428.22,251.22,428.56,252.21,428.56z"/>
			<path class="st1" d="M260.24,421.87c0-1.67,0.4-2.96,1.19-3.88c0.8-0.92,1.9-1.38,3.33-1.38c1.42,0,2.53,0.46,3.33,1.38
				c0.8,0.92,1.19,2.21,1.19,3.88v2.87c0,1.71-0.4,3.02-1.19,3.91c-0.8,0.89-1.91,1.34-3.33,1.34c-1.42,0-2.53-0.45-3.33-1.34
				c-0.8-0.89-1.19-2.2-1.19-3.91V421.87z M264.76,428.56c0.99,0,1.74-0.34,2.23-1.02c0.5-0.68,0.74-1.65,0.74-2.91v-2.65
				c0-1.18-0.25-2.12-0.74-2.85s-1.24-1.08-2.23-1.08s-1.74,0.36-2.23,1.08s-0.74,1.67-0.74,2.85v2.65c0,1.26,0.25,2.23,0.74,2.91
				C263.02,428.22,263.77,428.56,264.76,428.56z"/>
			<path class="st1" d="M281.41,429.74h-1.54v-4.3c0-0.32-0.07-0.56-0.22-0.74c-0.15-0.17-0.4-0.26-0.77-0.26h-4.01v5.29h-1.54
				v-12.86h4.59c0.66,0,1.24,0.1,1.73,0.29c0.49,0.19,0.9,0.44,1.22,0.76c0.32,0.32,0.57,0.69,0.73,1.11
				c0.17,0.42,0.25,0.87,0.25,1.33v0.55c0,0.48-0.13,0.96-0.39,1.43c-0.26,0.48-0.67,0.84-1.22,1.1v0.22
				c0.37,0.06,0.66,0.21,0.86,0.44c0.21,0.23,0.31,0.56,0.31,0.99V429.74z M274.87,423.01h2.87c0.87,0,1.52-0.19,1.94-0.56
				c0.42-0.37,0.63-0.92,0.63-1.64v-0.33c0-0.65-0.21-1.17-0.63-1.57c-0.42-0.4-1.07-0.6-1.94-0.6h-2.87V423.01z"/>
			<path class="st1" d="M294.03,429.74h-1.54v-4.3c0-0.32-0.07-0.56-0.22-0.74c-0.15-0.17-0.4-0.26-0.77-0.26h-4.01v5.29h-1.54
				v-12.86h4.59c0.66,0,1.24,0.1,1.73,0.29c0.49,0.19,0.9,0.44,1.22,0.76c0.32,0.32,0.57,0.69,0.73,1.11
				c0.17,0.42,0.25,0.87,0.25,1.33v0.55c0,0.48-0.13,0.96-0.39,1.43c-0.26,0.48-0.67,0.84-1.22,1.1v0.22
				c0.37,0.06,0.66,0.21,0.86,0.44c0.21,0.23,0.31,0.56,0.31,0.99V429.74z M287.49,423.01h2.87c0.87,0,1.52-0.19,1.94-0.56
				c0.42-0.37,0.63-0.92,0.63-1.64v-0.33c0-0.65-0.21-1.17-0.63-1.57c-0.42-0.4-1.07-0.6-1.94-0.6h-2.87V423.01z"/>
			<path class="st1" d="M298.74,416.87h7.79v1.43h-6.25v4.26h6.14V424h-6.14v4.3h6.36v1.43h-7.9V416.87z"/>
			<path class="st1" d="M315.33,428.56c0.53,0,0.98-0.09,1.35-0.27s0.68-0.42,0.92-0.72c0.24-0.3,0.42-0.64,0.53-1.03
				c0.12-0.39,0.17-0.79,0.17-1.22v-0.22h1.54v0.22c0,0.65-0.1,1.26-0.29,1.83c-0.2,0.57-0.48,1.07-0.86,1.49
				c-0.38,0.42-0.85,0.75-1.42,0.99c-0.56,0.24-1.21,0.36-1.95,0.36c-1.42,0-2.53-0.45-3.33-1.34c-0.8-0.89-1.19-2.2-1.19-3.91
				v-2.87c0-1.67,0.4-2.96,1.19-3.88c0.8-0.92,1.91-1.38,3.33-1.38c0.74,0,1.38,0.12,1.95,0.36c0.56,0.24,1.04,0.57,1.42,0.99
				c0.38,0.42,0.67,0.92,0.86,1.49c0.2,0.57,0.29,1.18,0.29,1.83v0.22h-1.54v-0.22c-0.01-0.42-0.08-0.82-0.19-1.21
				c-0.12-0.39-0.29-0.74-0.53-1.04c-0.24-0.3-0.54-0.54-0.91-0.72c-0.37-0.18-0.82-0.27-1.34-0.27c-0.99,0-1.74,0.36-2.23,1.08
				s-0.74,1.67-0.74,2.85v2.65c0,1.26,0.25,2.23,0.74,2.91C313.59,428.22,314.34,428.56,315.33,428.56z"/>
			<path class="st1" d="M323.36,416.87h9.04v1.43h-3.75v11.43h-1.54v-11.43h-3.75V416.87z"/>
			<path class="st1" d="M350.26,416.87v8.53c0,1.04,0.24,1.83,0.73,2.36c0.48,0.53,1.2,0.8,2.14,0.8s1.66-0.27,2.14-0.8
				c0.48-0.53,0.73-1.32,0.73-2.36v-8.53h1.54v8.53c0,1.5-0.39,2.63-1.18,3.42c-0.78,0.78-1.86,1.18-3.23,1.18s-2.45-0.39-3.23-1.18
				c-0.78-0.78-1.18-1.92-1.18-3.42v-8.53H350.26z"/>
			<path class="st1" d="M368.78,420.59c0-0.42-0.08-0.78-0.25-1.1c-0.17-0.32-0.39-0.58-0.67-0.79c-0.28-0.21-0.61-0.37-0.97-0.48
				c-0.37-0.11-0.75-0.17-1.16-0.17c-0.36,0-0.69,0.05-1.01,0.14s-0.6,0.22-0.85,0.39c-0.25,0.17-0.45,0.38-0.6,0.63
				c-0.15,0.25-0.22,0.54-0.22,0.87v0.11c0,0.36,0.07,0.66,0.22,0.91c0.15,0.25,0.36,0.47,0.65,0.64c0.29,0.18,0.65,0.33,1.07,0.44
				s0.93,0.22,1.51,0.3c1.35,0.21,2.34,0.6,2.98,1.19c0.64,0.58,0.96,1.36,0.96,2.34v0.22c0,0.55-0.09,1.06-0.29,1.52
				c-0.19,0.46-0.47,0.85-0.84,1.19c-0.37,0.33-0.84,0.59-1.39,0.77c-0.55,0.18-1.19,0.28-1.91,0.28c-0.82,0-1.55-0.12-2.18-0.36
				c-0.63-0.24-1.16-0.57-1.58-0.99c-0.42-0.42-0.74-0.92-0.96-1.49c-0.22-0.57-0.33-1.19-0.33-1.87v-0.55h1.54v0.44
				c0,1.13,0.31,1.97,0.93,2.54c0.62,0.56,1.48,0.85,2.58,0.85c0.96,0,1.68-0.21,2.16-0.63c0.48-0.42,0.73-0.98,0.73-1.68v-0.11
				c0-0.67-0.25-1.19-0.74-1.54c-0.5-0.35-1.3-0.61-2.42-0.77c-0.65-0.09-1.23-0.22-1.75-0.39s-0.96-0.41-1.33-0.7
				c-0.37-0.29-0.65-0.63-0.85-1.04s-0.29-0.88-0.29-1.43v-0.22c0-0.5,0.1-0.96,0.31-1.38c0.21-0.42,0.5-0.78,0.87-1.08
				c0.37-0.31,0.82-0.54,1.34-0.71c0.52-0.17,1.09-0.25,1.72-0.25c0.72,0,1.37,0.1,1.94,0.31s1.05,0.49,1.44,0.84
				c0.39,0.35,0.69,0.76,0.89,1.23s0.3,0.96,0.3,1.48v0.77h-1.54V420.59z"/>
			<path class="st1" d="M374.48,416.87h7.79v1.43h-6.25v4.26h6.14V424h-6.14v4.3h6.36v1.43h-7.9V416.87z"/>
			<path class="st1" d="M395.02,429.74h-1.54v-4.3c0-0.32-0.07-0.56-0.22-0.74c-0.15-0.17-0.4-0.26-0.77-0.26h-4.01v5.29h-1.54
				v-12.86h4.59c0.66,0,1.24,0.1,1.73,0.29c0.49,0.19,0.9,0.44,1.22,0.76c0.32,0.32,0.57,0.69,0.73,1.11
				c0.17,0.42,0.25,0.87,0.25,1.33v0.55c0,0.48-0.13,0.96-0.39,1.43c-0.26,0.48-0.67,0.84-1.22,1.1v0.22
				c0.37,0.06,0.66,0.21,0.86,0.44c0.21,0.23,0.31,0.56,0.31,0.99V429.74z M388.48,423.01h2.87c0.87,0,1.52-0.19,1.94-0.56
				c0.42-0.37,0.63-0.92,0.63-1.64v-0.33c0-0.65-0.21-1.17-0.63-1.57c-0.42-0.4-1.07-0.6-1.94-0.6h-2.87V423.01z"/>
			<path class="st1" d="M406.14,429.08h0.22v-12.2h1.54v12.86h-3.09l-3.71-12.2h-0.22v12.2h-1.54v-12.86h3.09L406.14,429.08z"/>
			<path class="st1" d="M419,426.54h-5.51l-0.94,3.2h-1.65l3.9-12.86h2.9l3.9,12.86h-1.65L419,426.54z M416.14,417.54l-2.22,7.57
				h4.67l-2.22-7.57H416.14z"/>
			<path class="st1" d="M424.09,416.87h2.94l1.73,12.2h0.22l1.73-12.2h2.94v12.86h-1.43v-12.2H432l-1.73,12.2h-2.79l-1.73-12.2
				h-0.22v12.2h-1.43V416.87z"/>
			<path class="st1" d="M437.6,416.87h7.79v1.43h-6.25v4.26h6.14V424h-6.14v4.3h6.36v1.43h-7.9V416.87z"/>
		</g>
		<g>
			
				<ellipse transform="matrix(0.9999 -0.0135 0.0135 0.9999 -3.3642 3.4139)" class="st1" cx="250.29" cy="250.01" rx="97.06" ry="97.06"/>
			<g>
				<g>
					<g>
						<path class="st1" d="M76.9,255.28l49.05-66.62h27.75v66.62h9.32v15.94h-9.32v22.66h-27.75v-22.66H76.9V255.28z M125.95,255.28
							v-32.86l-22.92,32.86H125.95z"/>
						<path class="st1" d="M336.42,255.28l49.04-66.62h27.75v66.62h9.88v15.94h-9.88v22.66h-27.75v-22.66h-49.04V255.28z
							 M385.47,255.28v-32.86l-22.92,32.86H385.47z"/>
					</g>
				</g>
			</g>
		</g>
		<g>
			<g>
				<g>
					<g>
						<path class="st2" d="M321.91,175.76c-8.55-3.64-24.33-2.42-30.95,15.87l33.43,25.3C339.92,207.06,339.05,183.37,321.91,175.76
							z M315.94,204.51l-11.7-8.85c2.32-6.4,7.84-6.83,10.83-5.55C321.07,192.77,321.38,201.06,315.94,204.51z"/>
					</g>
					<g>
						<path class="st3" d="M315.07,190.11c-2.99-1.27-8.51-0.85-10.83,5.55l11.7,8.85C321.38,201.06,321.07,192.77,315.07,190.11z"
							/>
					</g>
					<g>
						<path class="st2" d="M179.38,175.76c-17.15,7.6-18.01,31.3-2.48,41.18l33.44-25.3C203.72,173.34,187.94,172.12,179.38,175.76z
							 M185.35,204.51c-5.43-3.46-5.13-11.75,0.87-14.41c2.99-1.27,8.51-0.85,10.83,5.55L185.35,204.51z"/>
					</g>
					<g>
						<path class="st3" d="M186.22,190.11c-6,2.66-6.3,10.95-0.87,14.41l11.7-8.85C194.73,189.26,189.21,188.83,186.22,190.11z"/>
					</g>
				</g>
				<g>
					<path class="st4" d="M294.89,274.47c17.21-12.9,34.22-8.4,43.48-4.1c0.95-6.77,8.43-88.76-87.7-88.76v0c-0.02,0-0.03,0-0.05,0
						c-0.02,0-0.03,0-0.05,0v0c-95.01,0-88.66,81.99-87.71,88.76c9.26-4.3,26.27-8.8,43.48,4.1c17.31,12.98,16.83,32.33,14.73,43.44
						c9.53,1.71,19.54,2.49,29.5,2.54c0.02,0,0.03,0,0.05,0c0.02,0,0.03,0,0.05,0c9.95-0.05,19.97-0.83,29.5-2.54
						C278.06,306.8,277.58,287.44,294.89,274.47z M250.74,266.45c-1.98,0-5.25-2.91-5.62-5.58c-0.49-3.15,3.64-3.4,5.95-3.52
						C260.89,257.33,253.98,266.45,250.74,266.45z"/>
					<path class="st5" d="M251.07,257.36c-2.31,0.12-6.43,0.36-5.95,3.52c0.36,2.67,3.64,5.58,5.62,5.58
						C253.98,266.45,260.89,257.33,251.07,257.36z"/>
					<path class="st4" d="M206.33,274.47c-17.21-12.9-34.22-8.4-43.48-4.1c3.96,28.19,28.76,42.27,58.21,47.54
						C223.16,306.8,223.64,287.44,206.33,274.47z"/>
					<path class="st4" d="M338.37,270.37c-9.26-4.3-26.27-8.8-43.48,4.1c-17.31,12.98-16.83,32.33-14.73,43.44
						C309.61,312.63,334.41,298.55,338.37,270.37z"/>
				</g>
				<path class="st6" d="M206.33,274.47c-17.21-12.9-34.22-8.4-43.48-4.1c3.96,28.19,28.76,42.27,58.21,47.54
					C223.16,306.8,223.64,287.44,206.33,274.47z"/>
				<g>
					<path class="st7" d="M235.67,299.6c1.55,5.47,7.65,9.56,14.94,9.56c4.92,0,9.29-1.86,12.09-4.74
						C255.5,298.46,243.39,296.2,235.67,299.6z"/>
					<path class="st5" d="M265.93,296.86c0-6.79-6.86-12.29-15.32-12.29c-8.46,0-15.32,5.5-15.32,12.29c0,0.94,0.14,1.85,0.38,2.73
						c7.72-3.39,19.83-1.13,27.03,4.82C264.72,302.33,265.93,299.71,265.93,296.86z"/>
				</g>
				<path class="st6" d="M338.37,270.37c-9.26-4.3-26.27-8.8-43.48,4.1c-17.31,12.98-16.83,32.33-14.73,43.44
					C309.61,312.63,334.41,298.55,338.37,270.37z"/>
				<g>
					<g>
						<path class="st2" d="M237.6,233.19c5.9,8.26-0.19,22.72-13.6,32.29c-13.41,9.57-29.06,10.64-34.96,2.38
							c-5.89-8.26,0.19-22.72,13.61-32.29C216.05,226,231.7,224.94,237.6,233.19z"/>
						<path class="st2" d="M263.62,233.19c-5.9,8.26,0.19,22.72,13.6,32.29c13.41,9.57,29.06,10.64,34.96,2.38
							c5.9-8.26-0.19-22.72-13.6-32.29C285.17,226,269.52,224.94,263.62,233.19z"/>
					</g>
					<g>
						<path class="st4" d="M280.01,244.27c-3.17,0-5.74,2.57-5.74,5.75c0,3.17,2.57,5.75,5.74,5.75c3.17,0,5.75-2.57,5.75-5.75
							C285.76,246.84,283.19,244.27,280.01,244.27z M280.01,251.53c-0.84,0-1.52-0.68-1.52-1.52c0-0.84,0.68-1.52,1.52-1.52
							c0.84,0,1.52,0.68,1.52,1.52C281.53,250.85,280.85,251.53,280.01,251.53z"/>
						<path class="st4" d="M221.21,244.27c-3.17,0-5.75,2.57-5.75,5.75c0,3.17,2.57,5.75,5.75,5.75c3.17,0,5.74-2.57,5.74-5.75
							C226.95,246.84,224.38,244.27,221.21,244.27z M221.21,251.53c-0.84,0-1.52-0.68-1.52-1.52c0-0.84,0.68-1.52,1.52-1.52
							c0.84,0,1.52,0.68,1.52,1.52C222.73,250.85,222.04,251.53,221.21,251.53z"/>
					</g>
				</g>
			</g>
			<g>
				<path class="st8" d="M319.19,179.01c6.67,1.83,11.68,8.41,11.67,15.08c0,3.68-3.46,5.51-7.86-4.52
					c-3.29-7.5-11.97-7.37-10.89-9.42C312.98,178.51,316.73,178.33,319.19,179.01z"/>
			</g>
			<g>
				<path class="st8" d="M182.1,179.01c-6.67,1.83-11.68,8.41-11.68,15.08c0,3.68,3.46,5.51,7.86-4.52
					c3.29-7.5,11.97-7.37,10.89-9.42C188.32,178.51,184.57,178.33,182.1,179.01z"/>
			</g>
		</g>
		<g>
			<path class="st0" d="M250.29,174.11c4.8-40.35,51.43-31.91,87.01-32.64c28.76-0.59,44.12-3.65,42.12-34.62
				c-0.7-10.92,9.12-49.45-48.89-44.31c-58.01,5.14-119.17-1.58-156.11-0.47c-36.94,1.11-50.3,8.82-51,42.21
				c-0.7,33.39,4.36,39.56,58.43,36.6C252.22,137.04,250.29,174.11,250.29,174.11z"/>
		</g>
		<g>
			<path class="st4" d="M133.18,98.51c0-5.37,1.35-9.54,4.06-12.51c2.71-2.96,6.45-4.45,11.23-4.45c4.78,0,8.53,1.48,11.23,4.45
				c2.71,2.96,4.06,7.13,4.06,12.51v9.25c0,5.53-1.35,9.74-4.06,12.63c-2.71,2.89-6.45,4.33-11.23,4.33
				c-4.78,0-8.53-1.44-11.23-4.33c-2.71-2.88-4.06-7.09-4.06-12.63V98.51z M148.48,117.6c1.42,0,2.61-0.23,3.56-0.68
				c0.95-0.45,1.72-1.1,2.31-1.93c0.59-0.83,1.01-1.82,1.25-2.96c0.24-1.15,0.36-2.41,0.36-3.79v-10.2c0-1.3-0.14-2.53-0.42-3.68
				c-0.28-1.15-0.71-2.13-1.3-2.96s-1.36-1.49-2.31-1.99c-0.95-0.49-2.1-0.74-3.44-0.74c-1.34,0-2.49,0.25-3.44,0.74
				c-0.95,0.49-1.72,1.16-2.31,1.99s-1.03,1.82-1.3,2.96c-0.28,1.15-0.42,2.37-0.42,3.68v10.2c0,1.38,0.12,2.65,0.36,3.79
				c0.24,1.15,0.65,2.13,1.25,2.96c0.59,0.83,1.36,1.47,2.31,1.93C145.87,117.37,147.05,117.6,148.48,117.6z"/>
			<path class="st4" d="M204.5,109.54c0,2.45-0.41,4.61-1.24,6.49c-0.83,1.88-1.96,3.46-3.38,4.74c-1.42,1.28-3.05,2.26-4.89,2.93
				c-1.84,0.67-3.76,1.01-5.78,1.01s-3.94-0.34-5.78-1.01c-1.84-0.67-3.47-1.65-4.89-2.93c-1.42-1.28-2.55-2.87-3.38-4.74
				c-0.83-1.88-1.24-4.04-1.24-6.49v-0.71c0-2.41,0.42-4.55,1.24-6.43c0.83-1.88,1.96-3.47,3.38-4.77s3.05-2.29,4.89-2.96
				c1.84-0.67,3.76-1.01,5.78-1.01s3.94,0.34,5.78,1.01c1.84,0.67,3.47,1.66,4.89,2.96c1.42,1.3,2.55,2.9,3.38,4.77
				c0.83,1.88,1.24,4.02,1.24,6.43V109.54z M189.2,117.6c1.07,0,2.07-0.18,3.02-0.53c0.95-0.36,1.78-0.87,2.49-1.54
				c0.71-0.67,1.27-1.49,1.69-2.46c0.42-0.97,0.62-2.06,0.62-3.29v-1.19c0-1.22-0.21-2.32-0.62-3.29c-0.42-0.97-0.98-1.79-1.69-2.46
				c-0.71-0.67-1.54-1.19-2.49-1.54c-0.95-0.36-1.96-0.53-3.02-0.53c-1.07,0-2.08,0.18-3.02,0.53c-0.95,0.36-1.78,0.87-2.49,1.54
				c-0.71,0.67-1.27,1.49-1.69,2.46c-0.42,0.97-0.62,2.07-0.62,3.29v1.19c0,1.23,0.21,2.32,0.62,3.29c0.42,0.97,0.98,1.79,1.69,2.46
				c0.71,0.67,1.54,1.19,2.49,1.54C187.13,117.42,188.13,117.6,189.2,117.6z"/>
			<path class="st4" d="M245.22,109.54c0,2.45-0.41,4.61-1.24,6.49c-0.83,1.88-1.96,3.46-3.38,4.74c-1.42,1.28-3.05,2.26-4.89,2.93
				c-1.84,0.67-3.76,1.01-5.78,1.01s-3.94-0.34-5.78-1.01c-1.84-0.67-3.47-1.65-4.89-2.93c-1.42-1.28-2.55-2.87-3.38-4.74
				c-0.83-1.88-1.24-4.04-1.24-6.49v-0.71c0-2.41,0.42-4.55,1.24-6.43c0.83-1.88,1.96-3.47,3.38-4.77s3.05-2.29,4.89-2.96
				c1.84-0.67,3.76-1.01,5.78-1.01s3.94,0.34,5.78,1.01c1.84,0.67,3.47,1.66,4.89,2.96c1.42,1.3,2.55,2.9,3.38,4.77
				c0.83,1.88,1.24,4.02,1.24,6.43V109.54z M229.93,117.6c1.07,0,2.07-0.18,3.02-0.53c0.95-0.36,1.78-0.87,2.49-1.54
				c0.71-0.67,1.27-1.49,1.69-2.46c0.42-0.97,0.62-2.06,0.62-3.29v-1.19c0-1.22-0.21-2.32-0.62-3.29c-0.42-0.97-0.98-1.79-1.69-2.46
				c-0.71-0.67-1.54-1.19-2.49-1.54c-0.95-0.36-1.96-0.53-3.02-0.53c-1.07,0-2.08,0.18-3.02,0.53c-0.95,0.36-1.78,0.87-2.49,1.54
				c-0.71,0.67-1.27,1.49-1.69,2.46c-0.42,0.97-0.62,2.07-0.62,3.29v1.19c0,1.23,0.21,2.32,0.62,3.29c0.42,0.97,0.98,1.79,1.69,2.46
				c0.71,0.67,1.54,1.19,2.49,1.54C227.85,117.42,228.86,117.6,229.93,117.6z"/>
			<path class="st4" d="M263.07,135.74h-7.47V94.48h7.47v4.27h1.07c0.79-1.62,1.94-2.88,3.44-3.76c1.5-0.89,3.42-1.33,5.75-1.33
				c1.74,0,3.39,0.34,4.95,1.01c1.56,0.67,2.92,1.65,4.09,2.93c1.17,1.29,2.09,2.86,2.79,4.71c0.69,1.86,1.04,3.97,1.04,6.34v1.07
				c0,2.41-0.34,4.55-1.01,6.4c-0.67,1.86-1.58,3.43-2.73,4.71c-1.15,1.29-2.5,2.25-4.06,2.9c-1.56,0.65-3.25,0.98-5.07,0.98
				c-1.34,0-2.51-0.14-3.5-0.42c-0.99-0.28-1.85-0.65-2.58-1.13s-1.34-1.02-1.84-1.63c-0.49-0.61-0.92-1.25-1.27-1.93h-1.07V135.74z
				 M270.89,117.6c2.33,0,4.22-0.72,5.66-2.16c1.44-1.44,2.16-3.41,2.16-5.9v-0.71c0-2.49-0.72-4.46-2.16-5.9
				c-1.44-1.44-3.33-2.16-5.66-2.16c-2.33,0-4.22,0.74-5.66,2.22c-1.44,1.48-2.16,3.43-2.16,5.84v0.71c0,2.41,0.72,4.36,2.16,5.84
				C266.67,116.86,268.56,117.6,270.89,117.6z"/>
			<path class="st4" d="M307.23,102.78c0,0.95,0.49,1.63,1.48,2.05c0.99,0.41,2.79,0.76,5.39,1.04c3,0.32,5.45,1.22,7.35,2.7
				c1.9,1.48,2.85,3.55,2.85,6.2v0.36c0,2.93-1.07,5.26-3.2,7c-2.13,1.74-5.14,2.61-9.01,2.61c-2.29,0-4.25-0.3-5.87-0.89
				c-1.62-0.59-2.96-1.33-4.03-2.22c-1.07-0.89-1.89-1.88-2.46-2.96c-0.57-1.09-0.96-2.14-1.16-3.17l6.88-2.25
				c0.32,1.27,0.98,2.37,1.99,3.32c1.01,0.95,2.56,1.42,4.65,1.42c1.86,0,3.13-0.29,3.82-0.86c0.69-0.57,1.04-1.2,1.04-1.87
				c0-0.39-0.09-0.76-0.27-1.1c-0.18-0.34-0.5-0.65-0.98-0.95c-0.47-0.3-1.12-0.54-1.93-0.74c-0.81-0.2-1.83-0.36-3.05-0.47
				c-3.32-0.28-5.96-1.14-7.91-2.58c-1.96-1.44-2.93-3.57-2.93-6.37v-0.36c0-1.46,0.32-2.75,0.95-3.85
				c0.63-1.11,1.46-2.04,2.49-2.82c1.03-0.77,2.21-1.35,3.56-1.75c1.34-0.39,2.73-0.59,4.15-0.59c1.86,0,3.47,0.23,4.83,0.68
				c1.36,0.45,2.52,1.05,3.47,1.78c0.95,0.73,1.72,1.54,2.31,2.43s1.05,1.75,1.36,2.58l-6.76,2.73c-0.36-1.07-0.97-1.91-1.84-2.52
				c-0.87-0.61-2-0.92-3.38-0.92c-1.27,0-2.21,0.23-2.85,0.68C307.55,101.54,307.23,102.11,307.23,102.78z"/>
			<path class="st4" d="M357.74,119.08c0,0.79-0.15,1.53-0.44,2.22c-0.3,0.69-0.7,1.28-1.22,1.78c-0.51,0.49-1.12,0.89-1.81,1.19
				c-0.69,0.3-1.41,0.44-2.16,0.44c-0.79,0-1.52-0.15-2.19-0.44c-0.67-0.3-1.27-0.69-1.78-1.19c-0.51-0.49-0.92-1.09-1.22-1.78
				c-0.3-0.69-0.44-1.43-0.44-2.22c0-0.79,0.15-1.53,0.44-2.22c0.3-0.69,0.7-1.28,1.22-1.78c0.51-0.49,1.11-0.89,1.78-1.19
				c0.67-0.3,1.4-0.44,2.19-0.44c0.75,0,1.47,0.15,2.16,0.44c0.69,0.3,1.29,0.69,1.81,1.19c0.51,0.49,0.92,1.09,1.22,1.78
				C357.59,117.55,357.74,118.29,357.74,119.08z M356.02,82.38v28.93h-7.83V82.38H356.02z"/>
		</g>
	</g>
</g>
<g id="DESIGNED_BY_FREEPIK">
	<g>
	</g>
	<g>
	</g>
	<g>
	</g>
	<g>
	</g>
	<g>
	</g>
</g>
</svg>
